<svg width="32" height="30" viewBox="0 0 32 30" fill="none" xmlns="http://www.w3.org/2000/svg">
<g clip-path="url(#clip0_16_127)">
<path d="M22.3945 0.874512H32.0001L19.1624 24.2505C19.1624 24.2505 16.9995 18.0576 16.0699 15.8476" fill="url(#paint0_linear_16_127)"/>
<path d="M24.764 29.7785H32V0.874512C31.9939 15.9793 25.5538 29.7785 24.764 29.7785Z" fill="url(#paint1_linear_16_127)"/>
<path d="M19.1623 24.2504H13.19L0 0.874429C2.33908 0.58097 7.01122 0.185661 9.32596 0L19.1623 24.2504Z" fill="url(#paint2_linear_16_127)"/>
<path d="M7.64913 15.021C5.66847 22.7351 -0.00607875 30.006 4.88787e-06 30C6.57376 30 7.98936 29.0597 7.98936 28.5627V15.608C7.87387 15.4163 7.76457 15.2187 7.64913 15.021V15.021Z" fill="url(#paint3_linear_16_127)"/>
<path d="M0 0.874512V30.0001C3.59671 24.1426 5.69275 20.3095 7.54581 14.8474C2.977 6.88172 0 0.874512 0 0.874512Z" fill="url(#paint4_linear_16_127)"/>
<path d="M24.2658 28.6345L24.764 29.7785V14.6018L24.2658 15.4223" fill="url(#paint5_linear_16_127)"/>
<path d="M24.7397 14.6317V29.7306L24.7579 29.7785C25.2744 29.7785 31.9939 13.4399 31.9939 0.874512C31.9939 0.874512 27.8929 9.3073 24.7397 14.6317Z" fill="url(#paint6_linear_16_127)"/>
</g>
<defs>
<linearGradient id="paint0_linear_16_127" x1="15.6141" y1="13.5453" x2="33.7838" y2="9.96256" gradientUnits="userSpaceOnUse">
<stop stop-color="#0F6067"/>
<stop offset="0.5" stop-color="#05ABAC"/>
<stop offset="1" stop-color="#58BEC4"/>
</linearGradient>
<linearGradient id="paint1_linear_16_127" x1="28.3472" y1="30.0764" x2="30.8742" y2="0.776289" gradientUnits="userSpaceOnUse">
<stop stop-color="#117C83"/>
<stop offset="0.5" stop-color="#21B5B5"/>
<stop offset="1" stop-color="#7ED4D4"/>
</linearGradient>
<linearGradient id="paint2_linear_16_127" x1="13.2997" y1="1.27151" x2="6.61682" y2="22.1359" gradientUnits="userSpaceOnUse">
<stop stop-color="#9ACCD3"/>
<stop offset="0.5" stop-color="#72AEB3"/>
<stop offset="1" stop-color="#317D7F"/>
</linearGradient>
<linearGradient id="paint3_linear_16_127" x1="-1.63351" y1="25.0256" x2="9.8479" y2="21.2412" gradientUnits="userSpaceOnUse">
<stop stop-color="#21626E"/>
<stop offset="0.5" stop-color="#157C84"/>
<stop offset="1" stop-color="#03A3A5"/>
</linearGradient>
<linearGradient id="paint4_linear_16_127" x1="7.36807" y1="8.65932" x2="-7.16738" y2="22.4093" gradientUnits="userSpaceOnUse">
<stop stop-color="#0B7C81"/>
<stop offset="0.5" stop-color="#068D90"/>
<stop offset="1" stop-color="#16B1B1"/>
</linearGradient>
<linearGradient id="paint5_linear_16_127" x1="20.9944" y1="25.1854" x2="28.4358" y2="19.0726" gradientUnits="userSpaceOnUse">
<stop stop-color="#0A8A8F"/>
<stop offset="0.5" stop-color="#0F7C82"/>
<stop offset="1" stop-color="#1A5964"/>
</linearGradient>
<linearGradient id="paint6_linear_16_127" x1="32.3881" y1="17.7957" x2="24.4484" y2="12.7629" gradientUnits="userSpaceOnUse">
<stop stop-color="#256A77"/>
<stop offset="0.5" stop-color="#0D9499"/>
<stop offset="1" stop-color="#06A0A2"/>
</linearGradient>
<clipPath id="clip0_16_127">
<rect width="32" height="30" fill="white"/>
</clipPath>
</defs>
</svg>
