<svg width="32" height="26" viewBox="0 0 32 26" fill="none" xmlns="http://www.w3.org/2000/svg">
<g clip-path="url(#clip0_16_135)">
<path d="M12.5538 14.2642C12.6702 12.208 13.6866 10.3965 15.22 9.11233C16.7238 7.85101 18.7478 7.08008 20.9563 7.08008C23.1626 7.08008 25.1866 7.85101 26.6915 9.11233C28.2238 10.3965 29.2402 12.208 29.3577 14.262C29.474 16.3747 28.6168 18.3374 27.113 19.7923C25.5796 21.2722 23.3986 22.2008 20.9563 22.2008C18.514 22.2008 16.3286 21.2722 14.7963 19.7923C13.2914 18.3374 12.4364 16.3747 12.5538 14.2642Z" fill="white"/>
<path d="M16.646 14.4477C16.7057 13.3927 17.2272 12.4632 18.014 11.8042C18.7856 11.157 19.8242 10.7615 20.9574 10.7615C22.0894 10.7615 23.128 11.157 23.9001 11.8042C24.6864 12.4632 25.2079 13.3927 25.2682 14.4466C25.3279 15.5307 24.888 16.5377 24.1164 17.2842C23.3296 18.0436 22.2105 18.52 20.9574 18.52C19.7042 18.52 18.5829 18.0436 17.7966 17.2842C17.0244 16.5377 16.5857 15.5307 16.646 14.4477Z" fill="#265787"/>
<path d="M9.80135 16.6151C9.80868 17.0288 9.94189 17.8328 10.1417 18.4607C10.5616 19.7898 11.2739 21.0193 12.265 22.1029C13.2821 23.2166 14.5346 24.1112 15.9812 24.7464C17.5017 25.4134 19.1492 25.7534 20.8606 25.7506C22.5691 25.7483 24.2166 25.4017 25.7371 24.7296C27.1837 24.0883 28.4351 23.1898 29.4504 22.0755C30.441 20.9874 31.1522 19.7557 31.5732 18.4266C31.7849 17.7551 31.9186 17.0735 31.9723 16.3897C32.0248 15.716 32.0027 15.0411 31.9062 14.3668C31.7177 13.0529 31.2588 11.82 30.5522 10.6962C29.9059 9.66348 29.0728 8.75937 28.0823 7.9984L28.0845 7.99673L18.0881 0.393206C18.0791 0.386496 18.0718 0.379227 18.0622 0.373077C17.4063 -0.125661 16.3034 -0.123984 15.5821 0.375873C14.8529 0.88132 14.7694 1.71721 15.4184 2.24446L15.4156 2.24726L19.585 5.60592L6.8771 5.61933H6.86016C5.80978 5.62045 4.80004 6.30314 4.60023 7.16587C4.39478 8.04481 5.10821 8.77391 6.20036 8.77782L6.19866 8.78174L12.6398 8.76944L1.14599 17.5091C1.13132 17.5197 1.11551 17.5309 1.10197 17.5415C0.0177195 18.364 -0.332784 19.7316 0.350162 20.5971C1.04327 21.4772 2.51696 21.4789 3.6125 20.6022L9.88545 15.5164C9.88545 15.5164 9.79401 16.203 9.80135 16.6151ZM25.9206 18.9142C24.6281 20.2186 22.8185 20.9583 20.8606 20.9623C18.8998 20.9656 17.0902 20.2326 15.7977 18.9304C15.1661 18.2958 14.7022 17.5656 14.416 16.7878C14.1355 16.0235 14.0266 15.2122 14.0988 14.3937C14.1671 13.5936 14.4076 12.8304 14.7914 12.1398C15.1684 11.4611 15.6877 10.8477 16.3288 10.3288C17.5852 9.31458 19.1848 8.76552 20.8577 8.76328C22.5324 8.76105 24.1308 9.30508 25.3883 10.316C26.0284 10.8326 26.5471 11.4437 26.9241 12.1214C27.3096 12.8113 27.5484 13.5717 27.6195 14.3741C27.6906 15.1915 27.5817 16.0017 27.3011 16.7666C27.0144 17.5466 26.5522 18.2768 25.9206 18.9142Z" fill="#EA7600"/>
</g>
<defs>
<clipPath id="clip0_16_135">
<rect width="32" height="25.7561" fill="white"/>
</clipPath>
</defs>
</svg>
