<svg width="30" height="30" viewBox="0 0 30 30" fill="none" xmlns="http://www.w3.org/2000/svg">
<g clip-path="url(#clip0_18_161)">
<path fill-rule="evenodd" clip-rule="evenodd" d="M15.189 0.9375C6.79709 0.9375 0 7.53049 0 15.6705C0 22.1899 4.34788 27.6963 10.3855 29.6485C11.1449 29.7774 11.4297 29.3354 11.4297 28.9486C11.4297 28.5987 11.4107 27.4385 11.4107 26.2046C7.59453 26.886 6.60722 25.3022 6.30343 24.4735C6.13257 24.0499 5.39208 22.7423 4.74657 22.3925C4.21496 22.1162 3.45547 21.4348 4.72756 21.4164C5.92369 21.398 6.77809 22.4846 7.06286 22.9265C8.42992 25.1549 10.6133 24.5287 11.4867 24.142C11.6196 23.1844 12.0183 22.5398 12.455 22.1715C9.07544 21.8032 5.544 20.5324 5.544 14.897C5.544 13.2948 6.13257 11.9688 7.10087 10.9375C6.94895 10.5692 6.41735 9.05907 7.25274 7.03324C7.25274 7.03324 8.52482 6.64653 11.4297 8.54343C12.6448 8.21189 13.9359 8.04618 15.2269 8.04618C16.518 8.04618 17.8091 8.21189 19.0242 8.54343C21.9291 6.62808 23.2012 7.03324 23.2012 7.03324C24.0366 9.05907 23.5049 10.5692 23.3531 10.9375C24.3214 11.9688 24.91 13.2764 24.91 14.897C24.91 20.5508 21.3595 21.8032 17.98 22.1715C18.5306 22.6319 19.0052 23.5158 19.0052 24.8971C19.0052 26.8676 18.9863 28.4514 18.9863 28.9486C18.9863 29.3354 19.271 29.7958 20.0305 29.6485C26.0301 27.6963 30.378 22.1715 30.378 15.6705C30.378 7.53049 23.5809 0.9375 15.189 0.9375Z" fill="white"/>
</g>
<defs>
<clipPath id="clip0_18_161">
<rect width="30" height="29.0625" fill="white" transform="translate(0 0.9375)"/>
</clipPath>
</defs>
</svg>
