<svg width="32" height="32" viewBox="0 0 32 32" fill="none" xmlns="http://www.w3.org/2000/svg">
<g clip-path="url(#clip0_13_597)">
<path d="M8.09144 24.96L0.365723 18.8343L4.20572 11.7029L15.2229 16L8.09144 24.96Z" fill="url(#paint0_linear_13_597)"/>
<path d="M32 8.5484L31.4057 27.0627L19.1086 31.9998L11.7029 27.2455L22.5372 15.9998L17.7829 5.62269L22.0343 0.502686L32 8.5484Z" fill="url(#paint1_linear_13_597)"/>
<path d="M32 8.5484L22.2628 20.0684L17.7828 5.62269L22.0343 0.502686L32 8.5484Z" fill="url(#paint2_linear_13_597)"/>
<path d="M15.4057 26.56L2.56 31.2229L4.61714 24L7.31429 15.1314L0 12.6629L4.61714 0L14.6743 1.23429L24.5486 12.5257L15.4057 26.56Z" fill="url(#paint3_linear_13_597)"/>
<path d="M6.26285 6.17139H26.0114V25.92H6.26285V6.17139Z" fill="black"/>
<path d="M8.09142 22.217H15.4971V23.4513H8.09142V22.217Z" fill="white"/>
<path d="M13.44 10.24V8.73145H9.3257V10.24H10.5143V15.4057H9.3257V16.9143H13.44V15.4057H12.2971V10.24H13.44Z" fill="white"/>
<path d="M17.3714 17.0514C16.7314 17.0514 16.1828 16.9143 15.7714 16.6857C15.36 16.4572 14.9943 16.1372 14.72 15.8172L15.8628 14.5372C16.0914 14.8114 16.32 14.9943 16.5486 15.1314C16.7771 15.2686 17.0514 15.36 17.3257 15.36C17.6457 15.36 17.92 15.2686 18.1486 15.04C18.3314 14.8114 18.4228 14.4914 18.4228 13.9886V8.73145H20.2514V14.08C20.2514 14.5829 20.2057 14.9943 20.0686 15.36C19.9314 15.7257 19.7486 16 19.4743 16.2743C19.2457 16.5029 18.9257 16.7314 18.56 16.8229C18.1943 16.96 17.8286 17.0514 17.3714 17.0514Z" fill="white"/>
</g>
<defs>
<linearGradient id="paint0_linear_13_597" x1="0.361151" y1="18.3264" x2="15.2306" y2="18.3264" gradientUnits="userSpaceOnUse">
<stop offset="0.258" stop-color="#F97A12"/>
<stop offset="0.459" stop-color="#B07B58"/>
<stop offset="0.724" stop-color="#577BAE"/>
<stop offset="0.91" stop-color="#1E7CE5"/>
<stop offset="1" stop-color="#087CFA"/>
</linearGradient>
<linearGradient id="paint1_linear_13_597" x1="11.7792" y1="11.3735" x2="36.3081" y2="24.9461" gradientUnits="userSpaceOnUse">
<stop stop-color="#F97A12"/>
<stop offset="0.072" stop-color="#CB7A3E"/>
<stop offset="0.154" stop-color="#9E7B6A"/>
<stop offset="0.242" stop-color="#757B91"/>
<stop offset="0.334" stop-color="#537BB1"/>
<stop offset="0.432" stop-color="#387CCC"/>
<stop offset="0.538" stop-color="#237CE0"/>
<stop offset="0.655" stop-color="#147CEF"/>
<stop offset="0.792" stop-color="#0B7CF7"/>
<stop offset="1" stop-color="#087CFA"/>
</linearGradient>
<linearGradient id="paint2_linear_13_597" x1="28.9042" y1="19.6181" x2="22.0754" y2="-0.786" gradientUnits="userSpaceOnUse">
<stop stop-color="#FE315D"/>
<stop offset="0.078" stop-color="#CB417E"/>
<stop offset="0.16" stop-color="#9E4E9B"/>
<stop offset="0.247" stop-color="#755BB4"/>
<stop offset="0.339" stop-color="#5365CA"/>
<stop offset="0.436" stop-color="#386DDB"/>
<stop offset="0.541" stop-color="#2374E9"/>
<stop offset="0.658" stop-color="#1478F3"/>
<stop offset="0.794" stop-color="#0B7BF8"/>
<stop offset="1" stop-color="#087CFA"/>
</linearGradient>
<linearGradient id="paint3_linear_13_597" x1="4.90057" y1="7.53051" x2="25.3824" y2="41.408" gradientUnits="userSpaceOnUse">
<stop stop-color="#FE315D"/>
<stop offset="0.04" stop-color="#F63462"/>
<stop offset="0.104" stop-color="#DF3A71"/>
<stop offset="0.167" stop-color="#C24383"/>
<stop offset="0.291" stop-color="#AD4A91"/>
<stop offset="0.55" stop-color="#755BB4"/>
<stop offset="0.917" stop-color="#1D76ED"/>
<stop offset="1" stop-color="#087CFA"/>
</linearGradient>
<clipPath id="clip0_13_597">
<rect width="32" height="32" fill="white"/>
</clipPath>
</defs>
</svg>
