<svg width="30" height="30" viewBox="0 0 30 30" fill="none" xmlns="http://www.w3.org/2000/svg">
<g clip-path="url(#clip0_20_245)">
<path d="M11.9425 26.9276C0.951439 24.0931 0.0495558 23.8552 0.0594666 23.8057C0.0693774 23.7462 6.15461 0.0494616 6.16452 0.0395508C6.16452 0.0395508 11.5164 1.40724 18.0476 3.09208C24.5788 4.77691 29.9405 6.14461 29.9504 6.14461C29.9703 6.14461 29.9703 6.18425 29.9604 6.2338C29.9405 6.38246 23.8652 29.9504 23.8454 29.9702C23.8454 29.9801 18.4836 28.6124 11.9425 26.9276ZM17.334 15.659C17.6511 14.4102 17.9187 13.3696 17.9286 13.3398C17.9386 13.2903 17.7007 13.2209 15.6293 12.6857C14.3608 12.3587 13.3003 12.101 13.2904 12.1109C13.2607 12.1406 12.0912 16.7293 12.1011 16.7393C12.1209 16.7591 16.7294 17.9484 16.7393 17.9385C16.7393 17.9286 17.0069 16.9077 17.334 15.659Z" fill="#E2231A"/>
</g>
<defs>
<clipPath id="clip0_20_245">
<rect width="30" height="30" fill="white"/>
</clipPath>
</defs>
</svg>
