<svg width="32" height="32" viewBox="0 0 32 32" fill="none" xmlns="http://www.w3.org/2000/svg">
<g clip-path="url(#clip0_66_165)">
<path d="M30.3085 31.9634H1.69153C0.761556 31.9634 0 31.2101 0 30.2738V1.6896C0 0.760686 0.761556 0 1.69153 0H30.3011C31.2458 0 32 0.760686 32 1.6896V30.2665C32 31.2101 31.2458 31.9634 30.3085 31.9634Z" fill="white"/>
<path d="M11.8554 0.117125C11.3941 0.299983 10.9254 0.468211 10.4714 0.658383C9.13137 1.21427 8.0403 2.09198 7.13229 3.21838C6.01925 4.60078 5.30163 6.16604 4.95746 7.89221C4.56204 9.86707 4.66456 11.8127 5.44076 13.6851C6.31215 15.7624 7.84259 17.1887 9.90025 18.081C11.2916 18.6881 12.7707 18.9441 14.2499 19.2001C16.2124 19.5439 18.1968 19.8364 20.0202 20.7288C20.9648 21.1896 21.7703 21.8186 22.3048 22.7402C22.6636 23.3692 22.8247 24.0495 22.8467 24.7663C22.9199 26.6753 22.3488 28.3576 21.0673 29.7912C19.9909 30.9907 18.6289 31.671 17.0691 31.9416C16.7176 32.0001 15.9854 31.9708 15.4362 31.9782C14.2279 31.9782 13.0197 31.9782 11.8188 31.9782C10.5959 31.9782 9.38034 31.9782 8.15746 31.9782C6.97851 31.9782 5.79224 31.9782 4.6133 31.9782C3.5149 31.9782 2.4165 31.9928 1.3181 31.9635C0.65174 31.9416 0.0659276 31.2614 0.0146691 30.5153C0.00734641 30.4422 0.0146691 30.369 0.0146691 30.2959C0.0146691 20.758 0.0146691 11.2275 0.00734641 1.6897C2.37538e-05 0.965583 0.270962 0.438954 0.937324 0.146383C1.14236 0.0586111 1.37668 0.0147254 1.59636 0.0147254C4.9062 0.00741112 8.22337 0.0147254 11.5332 0.0147254C11.6357 0.0147254 11.8481 0.0147254 11.8481 0.0147254C11.8554 0.0366683 11.8554 0.0951825 11.8554 0.117125ZM9.66593 29.9082C9.53412 29.7692 9.40964 29.623 9.27783 29.484C8.57485 28.716 8.1062 27.8163 7.75472 26.8435C7.66684 26.5948 7.7181 26.5071 7.9744 26.5071C8.27462 26.5071 8.5895 26.551 8.8824 26.4924C10.5666 26.156 11.7163 24.5615 11.0865 22.7987C10.3762 20.8166 7.91581 20.4216 6.58309 21.6943C5.5506 22.689 5.2284 24.4591 5.77028 25.8415C6.50986 27.7066 7.90849 28.9793 9.66593 29.9082Z" fill="black"/>
<path d="M18.9584 31.9854C19.5808 31.744 20.2911 31.4734 20.8476 31.2686C22.2462 30.7419 23.4105 29.8789 24.4211 28.8037C25.9076 27.2165 26.7497 25.3294 27.0865 23.1863C27.3282 21.643 27.3282 20.1143 27.006 18.5929C26.6911 17.1081 26.1053 15.733 25.0874 14.5847C24.1867 13.5826 23.081 12.8439 21.8435 12.3026C20.379 11.659 18.8266 11.4249 17.2522 11.2347C15.8975 11.0738 14.5208 10.8983 13.2321 10.4887C11.3428 9.89623 10.1492 8.52846 9.63663 6.59749C9.18995 4.88594 9.58537 3.34994 10.6472 1.98949C11.6577 0.694857 13.027 0.0146286 14.6966 0.00731429C19.8957 0 25.1094 0.0146286 30.3158 0C31.2897 0 32 0.7168 32 1.6896C31.9854 11.2274 31.9854 20.7579 31.9927 30.2958C31.9927 31.232 31.4801 31.8245 30.7405 31.9488C30.2719 32.0293 29.7813 31.9854 29.298 31.9854C28.0531 31.9854 26.8083 31.9854 25.5707 31.9854C24.3478 31.9854 23.1323 31.9707 21.9094 31.9707C21.2943 31.9707 20.6792 31.9854 20.0641 31.9854C19.7712 31.9854 19.3391 31.9854 18.9584 31.9854ZM23.7034 5.18583C23.3959 5.18583 23.1542 5.19314 22.9199 5.18583C21.3822 5.12731 19.9176 6.59749 20.335 8.2944C20.7524 9.984 22.5831 10.6496 23.9231 9.97669C25.2192 9.32571 25.7758 7.53371 25.3437 6.08549C24.9117 4.64457 24.011 3.54743 22.8101 2.67703C22.6636 2.57463 22.5099 2.48686 22.3561 2.39909C22.9565 3.23291 23.3373 4.1472 23.7034 5.18583Z" fill="black"/>
<path d="M9.66591 29.9081C7.90115 28.9865 6.50984 27.7138 5.77025 25.8341C5.22838 24.4517 5.55057 22.6816 6.58307 21.6869C7.90847 20.4069 10.3762 20.8091 11.0865 22.7913C11.7162 24.5541 10.5666 26.1413 8.88238 26.485C8.58948 26.5435 8.2746 26.4997 7.97437 26.4997C7.7254 26.4997 7.66682 26.5874 7.75469 26.8361C8.10618 27.8089 8.57483 28.7086 9.2778 29.4766C9.40961 29.6229 9.54142 29.7618 9.66591 29.9081Z" fill="white"/>
<path d="M23.7034 5.18589C23.3373 4.14726 22.9492 3.23298 22.3561 2.38452C22.5098 2.47961 22.6709 2.56006 22.8101 2.66246C24.011 3.54018 24.9117 4.63001 25.3437 6.07092C25.7831 7.52646 25.2192 9.31115 23.9231 9.96212C22.5831 10.635 20.7524 9.96944 20.335 8.27984C19.9176 6.58292 21.3748 5.12006 22.9199 5.17126C23.1616 5.19321 23.3959 5.18589 23.7034 5.18589Z" fill="white"/>
</g>
<defs>
<clipPath id="clip0_66_165">
<rect width="32" height="32" fill="white"/>
</clipPath>
</defs>
</svg>
