<svg width="32" height="28" viewBox="0 0 32 28" fill="none" xmlns="http://www.w3.org/2000/svg">
<g clip-path="url(#clip0_18_127)">
<path d="M9.05229 27.2645C15.237 27.2645 19.2595 23.9838 19.2595 19.0484C19.2595 15.221 16.8129 12.7889 12.4384 11.7817L9.62977 10.938C7.16595 10.384 5.72785 9.71879 6.06668 8.01941C6.34856 6.60568 7.19185 5.80759 9.15285 5.80759C15.3869 5.80759 17.6966 8.01941 17.6966 8.01941V2.6996C17.6966 2.6996 15.4479 0.666748 9.15285 0.666748C3.21957 0.666748 0 3.7245 0 8.45841C0 12.2858 2.23117 14.5117 6.75655 15.5692C7.07327 15.6486 7.23514 15.6893 7.24218 15.6915C7.93052 15.9048 8.85937 16.1867 10.0287 16.5372C12.3417 17.0912 12.9365 17.6791 12.9365 19.4417C12.9365 21.0533 11.2647 21.9693 9.05229 21.9693C2.67899 21.9693 0 18.7401 0 18.7401V24.6341C0 24.6341 1.67531 27.2645 9.05229 27.2645Z" fill="url(#paint0_linear_18_127)"/>
<path d="M28.1803 26.8659C30.3696 26.8659 32 25.2797 32 23.1335C32 20.9407 30.4162 19.4011 28.1803 19.4011C25.9909 19.4011 24.4071 20.9407 24.4071 23.1335C24.4071 25.3263 25.9909 26.8659 28.1803 26.8659Z" fill="#E80000"/>
</g>
<defs>
<linearGradient id="paint0_linear_18_127" x1="962.977" y1="0.666748" x2="962.977" y2="2660.45" gradientUnits="userSpaceOnUse">
<stop stop-color="#9D39FF"/>
<stop offset="1" stop-color="#A380FF"/>
</linearGradient>
<clipPath id="clip0_18_127">
<rect width="32" height="26.6667" fill="white" transform="translate(0 0.666748)"/>
</clipPath>
</defs>
</svg>
