<svg width="30" height="30" viewBox="0 0 30 30" fill="none" xmlns="http://www.w3.org/2000/svg">
<g clip-path="url(#clip0_19_221)">
<circle cx="15" cy="15" r="15" fill="#D9D9D9"/>
<path d="M16.1543 14.6428L19.6214 8.65779L21.2961 14.6428L19.621 20.6278L16.1543 14.6428ZM14.4655 15.6123L17.9326 21.5973L11.892 20.0531L7.52713 15.6123H14.4655ZM17.9323 7.68234L14.4652 13.6673H7.52713L11.892 9.22794L17.9323 7.68234ZM22.8823 12.6054L20.7645 4.73779L12.8702 6.84689L11.6998 8.90279L9.32928 8.88389L3.54623 14.6428L9.32928 20.4017L11.7016 20.3838L12.872 22.4387L20.7645 24.5478L22.8823 16.6805L21.6804 14.6428L22.8823 12.6054Z" fill="#232C38"/>
</g>
<defs>
<clipPath id="clip0_19_221">
<rect width="30" height="30" fill="white"/>
</clipPath>
</defs>
</svg>
