<svg width="30" height="30" viewBox="0 0 30 30" fill="none" xmlns="http://www.w3.org/2000/svg">
<g clip-path="url(#clip0_19_224)">
<circle cx="15" cy="15" r="15" fill="#D9D9D9"/>
<path d="M15 0.712928C22.885 0.712928 29.2871 7.12928 29.2871 15C29.2871 22.8707 22.8707 29.2871 15 29.2871C7.12928 29.2871 0.712928 22.885 0.712928 15C0.712928 7.11502 7.12928 0.712928 15 0.712928ZM15 0C6.71578 0 0 6.71578 0 15C0 23.2842 6.71578 30 15 30C23.2842 30 30 23.2842 30 15C30 6.71578 23.2985 0 15 0Z" fill="black"/>
<path d="M13.9591 6.01709C13.9591 6.01709 10.5798 6.97241 7.54277 10.1948C4.5057 13.4173 4.12072 15.7129 4.12072 17.4239C4.79087 16.2832 8.92585 9.99523 9.89544 12.9895V20.1473C9.89544 20.1473 9.8384 21.1169 8.35551 20.7319C8.79753 21.5589 11.0789 23.5979 15.1996 24.0114C16.1407 23.0703 17.3669 21.7158 17.3669 21.7158L19.4201 23.4553C19.4201 23.4553 23.1131 21.0599 24.5675 17.5808C23.2129 18.4648 21.5732 20.518 20.7177 19.0779V10.3659C20.7177 10.3659 22.9135 7.07222 23.2557 6.91538C22.3859 7.07222 19.3203 8.08458 17.7091 10.1663C17.2528 9.66728 15.9838 9.65302 15.9838 9.65302C15.9838 9.65302 16.9819 10.48 16.9962 11.2357C17.0105 11.9914 16.9962 18.2937 16.9962 19.0209C16.3118 19.7196 15.5846 20.0903 15.1141 20.0903C14.0162 20.0903 13.7025 19.7053 13.403 19.3203V10.1663C13.403 10.1663 12.8612 10.6226 12.4335 9.88116C12.0057 9.13971 11.9914 7.6996 13.9591 6.01709Z" fill="black"/>
</g>
<defs>
<clipPath id="clip0_19_224">
<rect width="30" height="30" fill="white"/>
</clipPath>
</defs>
</svg>
