<svg width="32" height="28" viewBox="0 0 32 28" fill="none" xmlns="http://www.w3.org/2000/svg">
<g clip-path="url(#clip0_20_252)">
<path d="M31.7135 21.3677L19.8616 1.03226C19.4839 0.4 18.8067 0 18.0513 0H13.9227C13.1803 0 12.49 0.4 12.1123 1.03226L0.273507 21.3677C-0.10419 22 -0.10419 22.7871 0.273507 23.4323L2.3313 26.9677C2.709 27.6129 3.38625 28 4.14164 28H27.8453C28.5877 28 29.278 27.6129 29.6557 26.9677L31.7135 23.4323C32.0912 22.7871 32.0912 22 31.7135 21.3677ZM21.6459 23.329C19.8616 23.8839 17.9601 24.1935 15.9935 24.1935C14.0269 24.1935 12.1254 23.8968 10.3411 23.3419C8.25723 22.6968 6.96785 20.5935 7.41067 18.4774C8.23118 14.6194 10.2499 11.2 13.0761 8.61936C14.7302 7.12258 17.2438 7.12258 18.8978 8.61936C21.7241 11.2 23.7558 14.6194 24.5633 18.4774C25.0061 20.5935 23.7298 22.6968 21.6329 23.3548" fill="#24ACD3"/>
</g>
<defs>
<clipPath id="clip0_20_252">
<rect width="32" height="28" fill="white"/>
</clipPath>
</defs>
</svg>
