<svg width="32" height="32" viewBox="0 0 32 32" fill="none" xmlns="http://www.w3.org/2000/svg">
<path fill-rule="evenodd" clip-rule="evenodd" d="M2.79637 17.8675C3.45041 22.5339 6.51983 26.4257 10.7001 28.2385C10.8831 24.4776 11.6597 20.8641 12.9425 17.479C11.575 17.2179 10.159 17.0807 8.70815 17.0807C6.65453 17.0807 4.67104 17.3556 2.79637 17.8675ZM12.6746 28.9153C13.7376 29.1882 14.8518 29.3333 16 29.3333C19.827 29.3333 23.2774 27.721 25.709 25.1385C23.0549 21.7671 19.2855 19.2073 14.9049 17.9474C13.5718 21.3859 12.7949 25.074 12.6746 28.9153ZM26.9943 23.5455C28.4697 21.3999 29.3333 18.8008 29.3333 16C29.3333 15.7654 29.3272 15.5321 29.3152 15.3005C27.8957 15.5575 26.4306 15.692 24.9332 15.692C22.0012 15.692 19.1941 15.1765 16.6097 14.2351C16.2841 14.8445 15.9768 15.464 15.6886 16.093C20.2154 17.4443 24.1448 20.0759 26.9943 23.5455ZM29.0625 13.3135C28.3695 9.92588 26.3918 7.00621 23.6606 5.0857C21.3159 7.27923 19.2806 9.76203 17.6201 12.4717C19.8972 13.2606 22.3603 13.692 24.9332 13.692C26.3472 13.692 27.7278 13.5617 29.0625 13.3135ZM21.8722 4.02608C20.1005 3.15554 18.1073 2.66666 16 2.66666C12.9126 2.66666 10.0702 3.71601 7.81023 5.47752C9.85067 8.12294 12.5724 10.2806 15.7373 11.7196C17.4264 8.90483 19.4935 6.31986 21.8722 4.02608ZM6.32487 6.8255C4.09311 9.17825 2.71044 12.3444 2.66764 15.8331C4.59437 15.3422 6.61966 15.0807 8.70815 15.0807C10.428 15.0807 12.1048 15.258 13.719 15.5947C14.0404 14.8739 14.3852 14.1648 14.7526 13.4682C11.4117 11.9196 8.52188 9.63153 6.32487 6.8255Z" fill="white"/>
</svg>
