<?xml version="1.0" encoding="UTF-8"?>
<svg id="Layer_1" data-name="Layer 1" xmlns="http://www.w3.org/2000/svg" version="1.1" viewBox="0 0 32 32">
  <defs>
    <style>
      .cls-1 {
        fill: #fff;
        stroke-width: 0px;
      }
    </style>
  </defs>
  <path class="cls-1" d="M16,2c-7.7,0-14,6.3-14,14s6.3,14,14,14,14-6.3,14-14S23.7,2,16,2ZM11.6,24.1h-3.2v-10.9h3.2v10.9ZM10,11.2c-.9,0-1.6-.7-1.6-1.6s.7-1.6,1.6-1.6,1.6.7,1.6,1.6-.7,1.6-1.6,1.6ZM23.7,24.1h-3.2v-5.6c0-.9-.7-1.6-1.6-1.6s-1.6.7-1.6,1.6v5.6h-3.2v-10.9h3.2v.7c.5-.2,1-.3,1.6-.3,2.7,0,4.8,2.2,4.8,4.8v5.6Z"/>
</svg>